<svg xmlns="http://www.w3.org/2000/svg" width="179.108" height="60.319" viewBox="0 0 179.108 60.319">
  <g id="logo" transform="translate(-118.1 -166)">
    <g id="Group_5844" data-name="Group 5844" transform="translate(118.1 166)">
      <g id="Group_5841" data-name="Group 5841" transform="translate(61.261)">
        <path id="Path_2963" data-name="Path 2963" d="M310.7,205.3a1.869,1.869,0,0,1-.584,1.364,1.768,1.768,0,0,1-1.364.584A2,2,0,0,1,306.8,205.3V193.512a9.5,9.5,0,0,1,16.232-6.72,11.29,11.29,0,0,1,.844.974,11.858,11.858,0,0,1,.877-.974,9.512,9.512,0,0,1,16.232,6.72V205.3a2,2,0,0,1-1.948,1.948,1.768,1.768,0,0,1-1.364-.584,1.869,1.869,0,0,1-.584-1.364V193.512a5.649,5.649,0,0,0-11.3,0V205.3a1.869,1.869,0,0,1-.584,1.364,1.888,1.888,0,0,1-1.4.584,2,2,0,0,1-1.948-1.948V193.512a5.649,5.649,0,0,0-11.3,0V205.3Z" transform="translate(-306.8 -178.156)" fill="#f93"/>
        <path id="Path_2964" data-name="Path 2964" d="M441.468,187.309a11.178,11.178,0,0,1,3.409,8.214v9.642a1.888,1.888,0,0,1-.584,1.4,1.869,1.869,0,0,1-1.364.584,1.768,1.768,0,0,1-1.364-.584,1.888,1.888,0,0,1-.584-1.4v-1.006a11.613,11.613,0,1,1-7.759-20.258A11.454,11.454,0,0,1,441.468,187.309Zm-8.214.487a7.329,7.329,0,0,0-5.454,2.273,7.452,7.452,0,0,0-2.273,5.487,7.329,7.329,0,0,0,2.273,5.454,7.452,7.452,0,0,0,5.454,2.273,7.329,7.329,0,0,0,5.454-2.273,7.72,7.72,0,0,0,0-10.941A7.329,7.329,0,0,0,433.255,187.8Z" transform="translate(-384.33 -178.089)" fill="#f93"/>
        <path id="Path_2965" data-name="Path 2965" d="M512.7,193.108a1.888,1.888,0,0,1-.584,1.4,1.768,1.768,0,0,1-1.364.584,1.869,1.869,0,0,1-1.364-.584,1.888,1.888,0,0,1-.584-1.4v-25.16A2,2,0,0,1,510.748,166a1.768,1.768,0,0,1,1.364.584,1.869,1.869,0,0,1,.584,1.364Z" transform="translate(-443.221 -166)" fill="#f93"/>
        <path id="Path_2966" data-name="Path 2966" d="M543.4,193.108a1.888,1.888,0,0,1-.584,1.4,1.768,1.768,0,0,1-1.364.584,1.869,1.869,0,0,1-1.364-.584,1.888,1.888,0,0,1-.584-1.4v-25.16A2,2,0,0,1,541.448,166a1.768,1.768,0,0,1,1.364.584,1.869,1.869,0,0,1,.584,1.364Z" transform="translate(-463.954 -166)" fill="#f93"/>
        <path id="Path_2967" data-name="Path 2967" d="M573.288,194.474a1.9,1.9,0,0,1-1.331.617,1.8,1.8,0,0,1-1.4-.519,1.78,1.78,0,0,1-.617-1.331,2.075,2.075,0,0,1,.519-1.4l3.9-4.22a10.527,10.527,0,0,1-7.11-3.117,10.794,10.794,0,1,1,15.356-.13Zm1.558-10.681a6.931,6.931,0,0,0,0-13.862,6.6,6.6,0,0,0-4.87,2.045,6.67,6.67,0,0,0-2.045,4.9,6.984,6.984,0,0,0,6.915,6.915Z" transform="translate(-480.568 -166.068)" fill="#138808"/>
        <path id="Path_2968" data-name="Path 2968" d="M645.69,193.108a1.888,1.888,0,0,1-.584,1.4,1.869,1.869,0,0,1-1.364.584,1.768,1.768,0,0,1-1.364-.584,1.888,1.888,0,0,1-.584-1.4V169.9h-5.746a1.97,1.97,0,0,1-1.364-.552,1.888,1.888,0,0,1-.584-1.4A2,2,0,0,1,636.048,166h7.694a2,2,0,0,1,1.948,1.948Z" transform="translate(-527.843 -166)" fill="#138808"/>
      </g>
      <g id="Group_5842" data-name="Group 5842" transform="translate(75.675 40.191)">
        <path id="Path_2969" data-name="Path 2969" d="M358.829,314.357l.1-.325v-4.22h-3.9v.974a1.267,1.267,0,0,1-.227.519.631.631,0,0,1-.487.227,1.275,1.275,0,0,1-.454-.1c-.13-.065-.292-.162-.454-.26a4.365,4.365,0,0,1-.455-.357,2.62,2.62,0,0,1-.39-.455,3.868,3.868,0,0,1-.292-.487,1.3,1.3,0,0,1-.1-.487.482.482,0,0,1,.26-.454,1.675,1.675,0,0,1,.779-.1h.844v-4.155c0-.26-.26-.487-.357-.617a.8.8,0,0,0-.519-.195,1.381,1.381,0,0,0-.357.065.707.707,0,0,0-.26.162.582.582,0,0,0-.162.227.764.764,0,0,0-.065.26,1.113,1.113,0,0,0,.13.519,2.079,2.079,0,0,0,.454.487l.032.13-.454.649-.13.032a1.98,1.98,0,0,1-.519-.39,2.453,2.453,0,0,1-.357-.454,3.276,3.276,0,0,1-.227-.487,2.841,2.841,0,0,1-.065-.519,1.7,1.7,0,0,1,.13-.682,1.253,1.253,0,0,1,.357-.552,1.842,1.842,0,0,1,.584-.39,1.965,1.965,0,0,1,.779-.13,1.94,1.94,0,0,1,1.4.519,2.323,2.323,0,0,1,.584,1.493v4.058h3.9v-5.844h2.6v.844l-.195.13h-1.1v10.064l-.454.325h-.941Z" transform="translate(-351.2 -298.58)"/>
        <path id="Path_2970" data-name="Path 2970" d="M382.586,314.763l-.1-.325V304.374H380.8l.065-.13V303.4h4.545v.844l-.325.13h-1.3v10.064l-.26.325Z" transform="translate(-371.19 -298.985)"/>
        <path id="Path_2971" data-name="Path 2971" d="M398.468,314.5a13.647,13.647,0,0,1-1.786-1.558,14.169,14.169,0,0,1-1.461-1.721c-.422-.584-.812-1.169-1.136-1.721s-.584-1.071-.812-1.493l.032-.13.779-.422.13.032a3.21,3.21,0,0,0,.292.487,1.7,1.7,0,0,0,.325.357,1.341,1.341,0,0,0,.357.227.959.959,0,0,0,.422.065,1.067,1.067,0,0,0,.552-.13,1.457,1.457,0,0,0,.422-.357,1.561,1.561,0,0,0,.26-.519,2.038,2.038,0,0,0,.1-.617,2.766,2.766,0,0,0-.1-.747,4.592,4.592,0,0,0-.227-.714,6.491,6.491,0,0,0-.325-.682c-.13-.195-.227-.584-.357-.584H392.3l.195-.13V303.3h7.792v.844l-.357.13H397.2c.1,0,.195.325.292.519a2.976,2.976,0,0,1,.292.747,4.9,4.9,0,0,1,.26,1.591,5.011,5.011,0,0,1-.13.974,2.651,2.651,0,0,1-.454.844,2.306,2.306,0,0,1-.747.617,2.179,2.179,0,0,1-1.071.227h-.1a8.165,8.165,0,0,0,.649.941,12.581,12.581,0,0,0,.844,1.006c.292.325.649.649,1.006.974a9.339,9.339,0,0,0,1.1.877v.13l-.617.714Z" transform="translate(-378.957 -298.917)"/>
        <path id="Path_2972" data-name="Path 2972" d="M418.453,314.733a2.072,2.072,0,0,0-.292-.195q-.243-.195-.584-.487a8.092,8.092,0,0,1-.714-.747,4.563,4.563,0,0,1-.682-1.006,7.037,7.037,0,0,1-.519-1.234,5.336,5.336,0,0,1-.227-1.493,3.262,3.262,0,0,1,.227-1.331,1.908,1.908,0,0,1,.649-.844,2.431,2.431,0,0,1,1.006-.487,5.258,5.258,0,0,1,1.3-.162h2.954v-2.273H414.2l.227-.13V303.5h9.739v.844l-.292.13H422.9v10.064l-.519.325h-.941l.162-.325V307.72h-2.727a4.062,4.062,0,0,0-.941.162,1.751,1.751,0,0,0-.714.292,1.414,1.414,0,0,0-.454.584,2.639,2.639,0,0,0-.162.974,3.076,3.076,0,0,0,.13.974,6.44,6.44,0,0,0,.292.844,5.718,5.718,0,0,0,.454.747,5.3,5.3,0,0,0,.552.649c.195.195.39.39.584.552s.39.325.552.487v.13l-.584.649Z" transform="translate(-393.747 -299.052)"/>
        <path id="Path_2973" data-name="Path 2973" d="M460.931,314.7l-.032-.325v-2.857c0,.26-.584.454-.877.584a3.034,3.034,0,0,1-1.266.26,2.737,2.737,0,0,1-1.3-.292,3.543,3.543,0,0,1-.941-.747,2.972,2.972,0,0,1-.584-1.039,3.484,3.484,0,0,1-.195-1.136,4.081,4.081,0,0,1,.162-1.071,2.935,2.935,0,0,1,.519-.941,2.653,2.653,0,0,1,.877-.682,2.691,2.691,0,0,1,1.169-.26,3.362,3.362,0,0,1,1.4.292c.357.162,1.006.39,1.006.649v-2.857H454.6l.1-.13V303.3h13.311v.844l-.195.13H462.2v3.019a3.292,3.292,0,0,1,.844-.812,2.8,2.8,0,0,1,1.234-.325,2,2,0,0,1,1.006.227,2.883,2.883,0,0,1,.779.584,2.983,2.983,0,0,1,.519.877,2.79,2.79,0,0,1,.162,1.039,3.622,3.622,0,0,1-.162,1.006,3.582,3.582,0,0,1-.487,1.006,5,5,0,0,1-2.045,1.656l-.13-.032-.487-.812.032-.13a3.578,3.578,0,0,0,.974-.617,3.322,3.322,0,0,0,.649-.714,4.114,4.114,0,0,0,.39-.747,3,3,0,0,0,.13-.747,1.89,1.89,0,0,0-.1-.617,1.721,1.721,0,0,0-.26-.487,1.456,1.456,0,0,0-.422-.325,1.53,1.53,0,0,0-.552-.13,1.651,1.651,0,0,0-.649.13,2.653,2.653,0,0,0-.649.39,3.75,3.75,0,0,0-.487.649,1.7,1.7,0,0,0-.325.877v5.032l-.325.325h-.909Zm-2.305-7.4a1.962,1.962,0,0,0-.779.162,1.484,1.484,0,0,0-.552.454,1.617,1.617,0,0,0-.325.617,2.7,2.7,0,0,0-.1.714,2.183,2.183,0,0,0,.13.779,1.718,1.718,0,0,0,.357.682,1.987,1.987,0,0,0,.552.487,1.408,1.408,0,0,0,.747.162,2.13,2.13,0,0,0,.747-.13,1.985,1.985,0,0,0,.714-.422,2.3,2.3,0,0,0,.584-.747,2.6,2.6,0,0,0,.26-1.071v-.519c0-.357-.682-.649-1.039-.844A3.325,3.325,0,0,0,458.626,307.293Z" transform="translate(-421.031 -298.917)"/>
        <path id="Path_2974" data-name="Path 2974" d="M489.127,305.578V295.189h-2.013l.065-.13v-.844h1.591a7.47,7.47,0,0,0-.292-1.266,5.106,5.106,0,0,0-.422-.941,2.252,2.252,0,0,0-.909-.909,1.238,1.238,0,0,0-.422-.13,1.455,1.455,0,0,0-.357-.032,1.953,1.953,0,0,0-.649.1.932.932,0,0,0-.422.26.841.841,0,0,0-.227.357,1.031,1.031,0,0,0-.065.454,2.841,2.841,0,0,0,.065.519,3.734,3.734,0,0,0,.195.552,4.877,4.877,0,0,0,.325.552,2.4,2.4,0,0,0,.422.39l-.065.065h-1.006c-.325,0-.584-.682-.779-1.039a2.46,2.46,0,0,1-.26-1.169,2.624,2.624,0,0,1,.162-.877,1.658,1.658,0,0,1,.487-.682,2.244,2.244,0,0,1,.779-.454,3.268,3.268,0,0,1,1.006-.162,3.2,3.2,0,0,1,1.428.325,3.16,3.16,0,0,1,1.039.941,4.852,4.852,0,0,1,.682,1.428,7.386,7.386,0,0,1,.357,1.656h1.883v.844l-.357.13H490.1v10.064l-.292.325h-.682Z" transform="translate(-440.819 -289.8)"/>
        <path id="Path_2975" data-name="Path 2975" d="M525.449,315.482a5.521,5.521,0,0,1-.747-.779,7.757,7.757,0,0,1-.519-.714c-.13-.227-.227-.39-.325-.552-.065-.1-.1-.195-.13-.227a3.424,3.424,0,0,1-.617.162,5.314,5.314,0,0,1-.714.065,3.956,3.956,0,0,1-2.565-.909,2.982,2.982,0,0,1-.844-1.136,3.625,3.625,0,0,1-.325-1.623,3.521,3.521,0,0,1,.26-1.364,2.638,2.638,0,0,1,.682-.974,3.123,3.123,0,0,1,1.039-.649,4.2,4.2,0,0,1,1.3-.26h1.721v-1.948H517.3l.195-.13V303.6h9.739v.844l-.162.13h-2.078v3.052l-.455.195h-2.4a2.452,2.452,0,0,0-1.786.519,2.16,2.16,0,0,0-.584,1.623,2.592,2.592,0,0,0,.227,1.169,2.3,2.3,0,0,0,.584.747,2.419,2.419,0,0,0,.812.422,2.933,2.933,0,0,0,.909.13c.195,0,.39-.032.552-.032a1.608,1.608,0,0,0,.422-.13c0-.065-.032-.13-.032-.227v-.325a3.977,3.977,0,0,1,.065-.617,2.065,2.065,0,0,1,.195-.584,1.216,1.216,0,0,1,.39-.422.886.886,0,0,1,.584-.162.9.9,0,0,1,.422.1.824.824,0,0,1,.325.26.773.773,0,0,1,.195.357,1.916,1.916,0,0,1,.065.454,2.115,2.115,0,0,1-.195.844,2.568,2.568,0,0,1-.649.844,3.092,3.092,0,0,0,.584.909,6.088,6.088,0,0,0,1.039.974v.162l-.682.747Z" transform="translate(-463.376 -299.12)"/>
        <path id="Path_2976" data-name="Path 2976" d="M527.883,340.353a4.556,4.556,0,0,1-1.526-.26,4.732,4.732,0,0,1-1.2-.649,5.984,5.984,0,0,1-.941-.844,8.465,8.465,0,0,1-.714-.877v-.13l.649-.519h.13a10.641,10.641,0,0,0,.779.877,5.319,5.319,0,0,0,.812.682,4.49,4.49,0,0,0,.877.454,3.706,3.706,0,0,0,1.071.162,3.175,3.175,0,0,0,.844-.1,1.75,1.75,0,0,0,.552-.26,1.015,1.015,0,0,0,.292-.357.9.9,0,0,0,.1-.422.817.817,0,0,0-.292-.649,1.344,1.344,0,0,0-.877-.26,2.625,2.625,0,0,0-.649.1,3.317,3.317,0,0,0-.877.39l-.13-.032-.455-.812.032-.13a4,4,0,0,1,1.006-.454,4.052,4.052,0,0,1,1.039-.162,3.016,3.016,0,0,1,.941.162,1.743,1.743,0,0,1,.714.422,2.434,2.434,0,0,1,.487.649,1.787,1.787,0,0,1,.162.844,2.44,2.44,0,0,1-.162.844,2.245,2.245,0,0,1-.519.714,2.809,2.809,0,0,1-.877.487A7.588,7.588,0,0,1,527.883,340.353Z" transform="translate(-467.563 -321.069)"/>
        <path id="Path_2977" data-name="Path 2977" d="M552.231,314.7l.195-.325v-2.857a4.705,4.705,0,0,1-1.006.584,3.309,3.309,0,0,1-1.3.26,2.873,2.873,0,0,1-1.331-.292,3.093,3.093,0,0,1-.942-.747,2.972,2.972,0,0,1-.584-1.039,3.634,3.634,0,0,1-.195-1.136,4.081,4.081,0,0,1,.162-1.071,2.937,2.937,0,0,1,.519-.941,2.29,2.29,0,0,1,.877-.682,2.691,2.691,0,0,1,1.169-.26,3.714,3.714,0,0,1,1.493.292,5.691,5.691,0,0,1,1.136.649v-2.857H545.9l.032-.13V303.3h13.311v.844l-.13.13H553.4v3.019a3.386,3.386,0,0,1,.877-.812,2.912,2.912,0,0,1,1.234-.325,2.218,2.218,0,0,1,1.039.227,3.061,3.061,0,0,1,.812.584,2.983,2.983,0,0,1,.519.877,2.789,2.789,0,0,1,.162,1.039,3.62,3.62,0,0,1-.162,1.006,3.581,3.581,0,0,1-.487,1.006,5,5,0,0,1-2.045,1.656l-.13-.032-.487-.812.032-.13a3.578,3.578,0,0,0,.974-.617,3.322,3.322,0,0,0,.649-.714,4.111,4.111,0,0,0,.39-.747,3,3,0,0,0,.13-.747,1.89,1.89,0,0,0-.1-.617,1.72,1.72,0,0,0-.26-.487,1.456,1.456,0,0,0-.422-.325,1.53,1.53,0,0,0-.552-.13,1.651,1.651,0,0,0-.649.13,2.654,2.654,0,0,0-.649.39,3.785,3.785,0,0,0-.519.649c-.162.26-.032.552-.357.877v5.032l-.227.325h-.941Zm-2.3-7.4a1.962,1.962,0,0,0-.779.162,1.484,1.484,0,0,0-.552.454,1.617,1.617,0,0,0-.325.617,2.7,2.7,0,0,0-.1.714,2.182,2.182,0,0,0,.13.779,1.718,1.718,0,0,0,.357.682,1.987,1.987,0,0,0,.552.487,1.408,1.408,0,0,0,.747.162,2.13,2.13,0,0,0,.747-.13,1.985,1.985,0,0,0,.714-.422,2.47,2.47,0,0,0,1.071-1.818v-.519c-.649-.357-.812-.649-1.169-.844A3.783,3.783,0,0,0,549.926,307.293Z" transform="translate(-482.691 -298.917)"/>
        <path id="Path_2978" data-name="Path 2978" d="M586.786,314.763l.162-.325V304.374H585V303.4h4.545v.844l-.26.13h-1.364v10.064l-.195.325Z" transform="translate(-509.097 -298.985)"/>
        <path id="Path_2979" data-name="Path 2979" d="M603.385,314.9l.162-.325v-5.844H600.3v.779c0,.195-.162.325-.162.454s-.13.26-.162.357a.577.577,0,0,1-.227.26.548.548,0,0,1-.325.1,1.206,1.206,0,0,1-.714-.26,2.5,2.5,0,0,1-.584-.584,5.166,5.166,0,0,1-.422-.714,1.929,1.929,0,0,1-.162-.617.583.583,0,0,1,.1-.357.473.473,0,0,1,.292-.195,1.712,1.712,0,0,1,.39-.1c.13,0,.292-.032.455-.032h4.772v-3.246H596.6l.13-.13V303.6h9.415v.844l-.292.13h-1.331v10.064l-.227.325h-.909Z" transform="translate(-516.931 -299.12)"/>
      </g>
      <g id="Group_5843" data-name="Group 5843" transform="translate(0 0.032)">
        <path id="Path_2980" data-name="Path 2980" d="M137.871,180.092v-3.246a1.581,1.581,0,0,0-.032-.39c0-.195.032-.39.032-.584v-.032a11.037,11.037,0,0,0-1.136-5.259,7.912,7.912,0,0,0-3.344-3.344A11.172,11.172,0,0,0,128.1,166.1a11.812,11.812,0,0,0-5.324,1.136,7.648,7.648,0,0,0-3.441,3.279,11.675,11.675,0,0,0-1.234,5.227v.032a11.263,11.263,0,0,0,1.136,4.837,8.3,8.3,0,0,0,3.019,3.246,8.482,8.482,0,0,0,4.058,1.136,18.665,18.665,0,0,0,5.422-.487v6.331l6.168-1.591v-9.155Zm-6.168-4.448a4.18,4.18,0,0,1-.974,2.922,3.889,3.889,0,0,1-5.292,0,4.17,4.17,0,0,1-.909-2.889h0a3.935,3.935,0,0,1,.909-2.857,3.356,3.356,0,0,1,2.63-1.006,3.429,3.429,0,0,1,2.662,1.006,3.725,3.725,0,0,1,.974,2.824Z" transform="translate(-118.1 -166.1)" fill="#f93"/>
        <path id="Path_2981" data-name="Path 2981" d="M209.986,166.4h-6.428L197,168.121V174l6.623-1.656.1,13.927,6.266-1.591Z" transform="translate(-171.385 -166.303)" fill="#f93"/>
        <path id="Path_2982" data-name="Path 2982" d="M158.864,244.32V230.1l-6.168,1.591v14.966c-3.9-1.4-8.441-1.461-12.661-1.136V234.9l-6.168,1.591v9.869c0,.032-.26.032-.39.065-1.818.227-10.876,1.656-11.947,7.856-.13,1.071-1.591,5.227,5,10.973a47.156,47.156,0,0,0,4.545,3.182,3.3,3.3,0,0,0,.909.422,12.334,12.334,0,0,0,4.87.617h.1a2.8,2.8,0,0,0,2.208-.974,3.259,3.259,0,0,0,.909-2.337V252.6a30.907,30.907,0,0,1,12.661-.422V266.3a3.157,3.157,0,0,0,.779,2.337,2.834,2.834,0,0,0,2.143.974,3,3,0,0,0,2.273-.974,3.319,3.319,0,0,0,.974-2.337v-1.006H158.7s.195-.032.195-.519V244.32Zm-28.115,13.44c-1.428,1.591-2.727,1.948-3.506,1.461-.747-.487-.714-1.591.747-3.214,1.136-1.266,2.24-1.915,3.019-1.915a1,1,0,0,1,.584.162C132.372,254.741,132.178,256.169,130.749,257.76Z" transform="translate(-120.263 -209.323)" fill="#138808"/>
      </g>
    </g>
  </g>
</svg>
